<?xml version="1.0" encoding="UTF-8"?>
<svg version="1.1" xmlns="http://www.w3.org/2000/svg" width="636" height="424">
<path d="M0 0 C209.88 0 419.76 0 636 0 C636 139.92 636 279.84 636 424 C426.12 424 216.24 424 0 424 C0 284.08 0 144.16 0 0 Z " fill="#1C1D1F" transform="translate(0,0)"/>
<path d="M0 0 C11.45952618 10.88839224 18.45885294 26.2068056 26.07421875 39.83349609 C42.36959364 70.21220992 42.36959364 70.21220992 69.8125 89.9375 C70.45316406 90.22367187 71.09382813 90.50984375 71.75390625 90.8046875 C83.1779728 95.81315091 97.82195881 95.66665826 109.63671875 91.671875 C112.6737763 90.64679992 115.63523477 90.29052947 118.8125 89.9375 C118.8125 89.2775 118.8125 88.6175 118.8125 87.9375 C120.6484375 86.74609375 120.6484375 86.74609375 123.1875 85.375 C128.88848782 82.05953191 136.76097093 77.39352864 139.61618042 71.19186401 C140.76867013 68.86259556 141.75476548 67.55090324 143.8125 65.9375 C148.69330431 64.92185104 153.56075922 65.12298634 158.51953125 65.25390625 C159.96967679 65.26697125 161.41985334 65.27693117 162.87004089 65.28392029 C166.67668814 65.31057691 170.48144887 65.37927239 174.28735352 65.45684814 C178.17503336 65.52861289 182.06301979 65.56045963 185.95117188 65.59570312 C193.57247226 65.67065102 201.19222126 65.79002923 208.8125 65.9375 C207.91793444 70.12384035 205.86657133 73.2617021 203.5625 76.8125 C197.6597927 86.08217622 192.0975553 95.54022978 186.53417969 105.01611328 C184.75422828 108.03637682 182.96091737 111.04835925 181.1640625 114.05859375 C180.57149658 115.05358887 179.97893066 116.04858398 179.3684082 117.07373047 C178.23157034 118.98188599 177.0922035 120.88853776 175.94995117 122.79345703 C175.4366626 123.65696777 174.92337402 124.52047852 174.39453125 125.41015625 C173.94311768 126.16562744 173.4917041 126.92109863 173.02661133 127.69946289 C171.74946699 130.05369215 170.75938861 132.43424077 169.8125 134.9375 C169.1525 134.9375 168.4925 134.9375 167.8125 134.9375 C167.503125 136.1440625 167.503125 136.1440625 167.1875 137.375 C161.07571553 153.21007794 147.75432578 165.49006404 132.7421875 172.65234375 C117.95319658 179.1397811 100.92756878 180.2656902 85.45703125 175.16015625 C83.15148015 174.20937146 81.00038815 173.13464635 78.8125 171.9375 C77.92691406 171.45410156 77.04132813 170.97070312 76.12890625 170.47265625 C62.51455107 162.44755091 55.5655002 150.1886337 47.8125 136.9375 C46.75755881 135.15302563 45.70154471 133.36918517 44.64453125 131.5859375 C35.67654179 116.43832505 35.67654179 116.43832505 31.63671875 109.4453125 C26.40809093 100.45971507 21.41366987 92.13785489 13.8125 84.9375 C13.15894531 84.29941406 12.50539063 83.66132813 11.83203125 83.00390625 C-0.62733879 71.43982029 -14.84331378 66.3637168 -31.62890625 66.6640625 C-47.4081821 67.33693852 -61.36568437 74.62121819 -72.1875 85.9375 C-77.75334937 93.11845053 -82.38292935 100.97812031 -87.0625 108.75 C-87.80381438 109.97570319 -88.54518947 111.20136968 -89.28662109 112.42700195 C-95.26071457 122.32169922 -101.11264704 132.28678402 -106.93969727 142.26855469 C-113.91909084 154.22040514 -121.04418772 166.08298861 -128.1875 177.9375 C-130.23076797 181.33237263 -132.27240715 184.72821842 -134.3125 188.125 C-134.79589844 188.9298584 -135.27929688 189.7347168 -135.77734375 190.56396484 C-138.80523388 195.61280972 -141.81642106 200.6710618 -144.79579163 205.74871826 C-145.87198284 207.56506255 -146.96203601 209.37332881 -148.07118225 211.16973877 C-151.11576668 216.15087769 -153.72455602 221.05338566 -155.94628906 226.45605469 C-159.04717254 233.44767696 -162.23632237 239.9548376 -168.1875 244.9375 C-178.02852378 248.67795327 -189.04741852 247.42652355 -199.34899902 246.65411377 C-203.16731471 246.39556598 -206.98986136 246.2836394 -210.81445312 246.15820312 C-218.28357055 245.89213912 -225.73195146 245.46744696 -233.1875 244.9375 C-231.76619204 241.28788394 -230.16437282 238.03678651 -228.1328125 234.68359375 C-227.22015625 233.17055664 -227.22015625 233.17055664 -226.2890625 231.62695312 C-225.31066406 230.01723633 -225.31066406 230.01723633 -224.3125 228.375 C-223.28544293 226.67467174 -222.25838794 224.97434219 -221.23162842 223.27383423 C-220.19888087 221.56449987 -219.16438469 219.85622241 -218.12988281 218.14794922 C-215.47013296 213.75180662 -212.82803461 209.34520003 -210.1875 204.9375 C-209.21496453 203.31633379 -208.2423061 201.69524134 -207.26953125 200.07421875 C-206.77404785 199.24841309 -206.27856445 198.42260742 -205.76806641 197.57177734 C-204.05761719 194.72102865 -202.34716797 191.87027995 -200.63671875 189.01953125 C-200.02199707 187.99496826 -199.40727539 186.97040527 -198.77392578 185.91479492 C-197.50286257 183.79641071 -196.23170295 181.67808434 -194.96044922 179.55981445 C-191.80341838 174.2990305 -188.6479024 169.03735203 -185.49609375 163.7734375 C-179.3055268 153.43856138 -173.08976349 143.11992481 -166.82562256 132.82949829 C-166.47066711 132.24638885 -166.11571167 131.66327942 -165.75 131.0625 C-165.39440002 130.4783432 -165.03880005 129.8941864 -164.67242432 129.29232788 C-158.77296514 119.59620855 -152.97006178 109.84573044 -147.20068359 100.0715332 C-142.14128048 91.51342211 -136.99633739 83.00939901 -131.82092285 74.52120972 C-126.36850467 65.57509908 -120.99519962 56.58473024 -115.66122437 47.5675354 C-112.53223983 42.2809803 -109.39257854 37.00076143 -106.24987793 31.72235107 C-105.2428245 30.03044808 -104.23709626 28.33775652 -103.23144531 26.64501953 C-92.70183605 8.98911103 -82.52550506 -6.05178836 -62.1875 -13.0625 C-61.43210938 -13.40539062 -60.67671875 -13.74828125 -59.8984375 -14.1015625 C-38.55778549 -21.66611638 -16.59307051 -13.76264065 0 0 Z " fill="#FCFCFC" transform="translate(303.1875,81.0625)"/>
<path d="M0 0 C1.38594529 0.00031696 2.77191535 0.01163319 4.15771484 0.03173828 C4.88735443 0.03456818 5.61699402 0.03739807 6.3687439 0.04031372 C8.70221262 0.05152076 11.03529937 0.07662568 13.36865234 0.10205078 C14.94937597 0.11207993 16.53010561 0.1212059 18.11083984 0.12939453 C21.98859149 0.15146173 25.86605712 0.18599463 29.74365234 0.22705078 C27.56399324 5.8206967 24.50088476 10.61108509 21.27856445 15.64624023 C15.73563105 24.35295321 10.02506774 33.38280458 6.74365234 43.22705078 C5.75365234 43.22705078 4.76365234 43.22705078 3.74365234 43.22705078 C3.469646 43.95682129 3.19563965 44.6865918 2.91333008 45.43847656 C1.80078437 48.09084497 0.53660947 50.39961374 -0.97119141 52.84423828 C-1.75333008 54.12621094 -1.75333008 54.12621094 -2.55126953 55.43408203 C-3.64176017 57.20531891 -4.73290065 58.97615588 -5.82470703 60.74658203 C-8.71315828 65.48349961 -11.16232314 70.09373677 -13.25634766 75.22705078 C-13.91634766 76.21705078 -14.57634766 77.20705078 -15.25634766 78.22705078 C-15.91634766 78.22705078 -16.57634766 78.22705078 -17.25634766 78.22705078 C-17.50771484 78.91154297 -17.75908203 79.59603516 -18.01806641 80.30126953 C-19.45673936 83.70053149 -21.21902989 86.85356153 -23.06884766 90.03955078 C-23.60179443 90.96658813 -23.60179443 90.96658813 -24.14550781 91.91235352 C-26.44062706 95.8842746 -28.84045757 99.77439894 -31.31494141 103.63720703 C-32.37495472 105.32162068 -32.37495472 105.32162068 -33.19384766 107.72705078 C-34.58875962 111.00919658 -36.68067083 113.50158183 -38.91650391 116.26220703 C-40.29264018 118.28027276 -40.82596876 119.84137023 -41.25634766 122.22705078 C-41.91634766 122.22705078 -42.57634766 122.22705078 -43.25634766 122.22705078 C-43.52447266 122.94892578 -43.79259766 123.67080078 -44.06884766 124.41455078 C-45.25634766 127.22705078 -45.25634766 127.22705078 -46.69384766 129.60205078 C-48.54928636 132.71918781 -49.87568007 135.87400094 -51.25634766 139.22705078 C-51.91634766 139.22705078 -52.57634766 139.22705078 -53.25634766 139.22705078 C-53.54509766 140.13455078 -53.83384766 141.04205078 -54.13134766 141.97705078 C-55.02166541 144.54907986 -55.97129178 146.84051844 -57.25634766 149.22705078 C-57.91634766 149.22705078 -58.57634766 149.22705078 -59.25634766 149.22705078 C-59.66844482 150.31602661 -59.66844482 150.31602661 -60.08886719 151.42700195 C-61.20639508 154.10724608 -62.47745384 156.51974682 -63.93603516 159.02783203 C-64.45294922 159.92308594 -64.96986328 160.81833984 -65.50244141 161.74072266 C-66.30875 163.12614258 -66.30875 163.12614258 -67.13134766 164.53955078 C-70.70264558 170.687223 -74.15124989 176.82934934 -77.25634766 183.22705078 C-77.91634766 183.22705078 -78.57634766 183.22705078 -79.25634766 183.22705078 C-79.53349609 183.96310547 -79.81064453 184.69916016 -80.09619141 185.45751953 C-81.16568169 188.01061251 -82.35756279 190.19566651 -83.81884766 192.53955078 C-86.09512378 196.25985679 -88.27165969 200.01727159 -90.38525391 203.83105469 C-102.08553459 224.92315475 -113.55492918 244.99279621 -138.25634766 252.22705078 C-144.40701593 253.87979955 -150.20553962 254.58533468 -156.56884766 254.53955078 C-157.39843994 254.53391113 -158.22803223 254.52827148 -159.08276367 254.52246094 C-174.76213215 254.21433442 -188.24344592 248.48335291 -199.38134766 237.39111328 C-207.23426623 229.06051049 -212.63217022 218.76302061 -218.07836914 208.78369141 C-221.72991486 202.1064185 -225.52652819 195.51845859 -229.38763428 188.96081543 C-230.08147582 187.78082372 -230.77299789 186.59946449 -231.4619751 185.41662598 C-242.38360174 166.68066932 -254.72020496 152.53193077 -276.25634766 146.22705078 C-276.97951172 146.00275391 -277.70267578 145.77845703 -278.44775391 145.54736328 C-287.69075563 143.0621363 -298.19396026 143.08113326 -307.25634766 146.22705078 C-308.10583984 146.49517578 -308.95533203 146.76330078 -309.83056641 147.03955078 C-325.56439323 152.30610369 -336.02030385 161.34991355 -344.50634766 175.34814453 C-346.25634766 178.22705078 -346.25634766 178.22705078 -347.25634766 179.22705078 C-349.70465192 179.31548871 -352.12455364 179.3423383 -354.57275391 179.32470703 C-355.30380844 179.32329208 -356.03486298 179.32187714 -356.78807068 179.32041931 C-359.13170398 179.31480486 -361.47524305 179.30225 -363.81884766 179.28955078 C-365.40413274 179.28453764 -366.98941931 179.27997441 -368.57470703 179.27587891 C-372.46862376 179.26483075 -376.36246971 179.2475565 -380.25634766 179.22705078 C-379.66888151 175.16297835 -378.36475443 172.32572022 -376.25634766 168.81689453 C-375.62543213 167.75937988 -374.9945166 166.70186523 -374.34448242 165.61230469 C-373.64859162 164.46296006 -372.95254209 163.31371152 -372.25634766 162.16455078 C-371.53302926 160.95835589 -370.81030259 159.75180598 -370.08813477 158.54492188 C-364.34544186 148.96470828 -358.52951195 139.42798983 -352.70800781 129.89550781 C-348.9577932 123.74437127 -345.26617946 117.56402496 -341.65087891 111.33251953 C-341.08056694 110.35109985 -341.08056694 110.35109985 -340.49873352 109.34985352 C-338.67370577 106.20688439 -336.85639525 103.05985377 -335.05151367 99.90527344 C-324.8063673 82.19962983 -312.48971858 68.39578705 -292.5078125 62.01660156 C-287.06110064 60.69398059 -281.77216826 60.68728707 -276.19384766 60.78955078 C-275.10007812 60.78246094 -274.00630859 60.77537109 -272.87939453 60.76806641 C-264.16003667 60.83549749 -256.02352678 62.0928528 -248.25634766 66.22705078 C-248.25634766 66.88705078 -248.25634766 67.54705078 -248.25634766 68.22705078 C-247.37849609 68.47197266 -246.50064453 68.71689453 -245.59619141 68.96923828 C-227.12684357 75.92494589 -217.9681992 97.54872652 -209.06738281 113.53808594 C-198.37896314 133.81659572 -198.37896314 133.81659572 -184.43603516 151.84423828 C-183.25634766 153.22705078 -183.25634766 153.22705078 -183.25634766 155.22705078 C-182.67884766 155.49904297 -182.10134766 155.77103516 -181.50634766 156.05126953 C-179.25978178 157.22525622 -177.31386103 158.56266145 -175.25634766 160.03955078 C-160.5641356 169.95558169 -143.76553255 172.43891732 -126.48681641 169.60986328 C-98.76144465 161.88368077 -86.88927152 139.45504965 -73.25634766 116.22705078 C-72.28761954 114.57990249 -71.31887177 112.93276577 -70.35009766 111.28564453 C-69.14742452 109.24054185 -67.94566779 107.19505829 -66.75268555 105.14428711 C-64.37375584 101.06745895 -61.916867 97.04354544 -59.43603516 93.02783203 C-55.48238427 86.62011163 -51.63889481 80.15252864 -47.81884766 73.66455078 C-41.88254209 63.60370728 -35.85595413 53.60189332 -29.76855469 43.63186646 C-23.24090875 32.93367478 -16.88950506 22.13678951 -10.61206055 11.29003906 C-10.26715576 10.69668762 -9.92225098 10.10333618 -9.56689453 9.49200439 C-8.63371511 7.88661266 -7.70382669 6.27930922 -6.77416992 4.671875 C-4.04899808 0.2823188 -4.04899808 0.2823188 0 0 Z " fill="#FBFBFB" transform="translate(551.25634765625,146.77294921875)"/>
<path d="M0 0 C0.66 0.33 1.32 0.66 2 1 C1.15695313 1.83144531 0.31390625 2.66289062 -0.5546875 3.51953125 C-1.66159075 4.61705397 -2.7683543 5.71471759 -3.875 6.8125 C-4.43058594 7.35970703 -4.98617187 7.90691406 -5.55859375 8.47070312 C-6.36103516 9.26831055 -6.36103516 9.26831055 -7.1796875 10.08203125 C-7.67194824 10.56905518 -8.16420898 11.0560791 -8.67138672 11.55786133 C-10.22588489 13.17003501 -10.22588489 13.17003501 -12 16 C-12.66 16 -13.32 16 -14 16 C-12.51261554 12.63421763 -10.57625007 10.17087508 -8.125 7.4375 C-7.44695312 6.67308594 -6.76890625 5.90867188 -6.0703125 5.12109375 C-4.15907769 3.16297959 -2.23535632 1.56875903 0 0 Z " fill="#48494B" transform="translate(240,158)"/>
<path d="M0 0 C0.66 0.33 1.32 0.66 2 1 C-2.62 5.62 -7.24 10.24 -12 15 C-12 11.11566834 -10.82920314 10.32394504 -8.25 7.5 C-7.55390625 6.7265625 -6.8578125 5.953125 -6.140625 5.15625 C-4.19891408 3.20036601 -2.25069252 1.58156772 0 0 Z " fill="#515153" transform="translate(223,302)"/>
<path d="M0 0 C0.66 0.33 1.32 0.66 2 1 C-6.27906977 10.58139535 -6.27906977 10.58139535 -9 13 C-9.66 13 -10.32 13 -11 13 C-9.46356148 9.31930113 -7.21849055 7.01224796 -4.375 4.25 C-3.55773437 3.45078125 -2.74046875 2.6515625 -1.8984375 1.828125 C-0.95871094 0.92320312 -0.95871094 0.92320312 0 0 Z " fill="#D6D6D6" transform="translate(237,220)"/>
<path d="M0 0 C0.66 0.33 1.32 0.66 2 1 C-0.97 4.3 -3.94 7.6 -7 11 C-7.66 10.67 -8.32 10.34 -9 10 C-7.8758824 8.70756532 -6.75067408 7.41607925 -5.625 6.125 C-4.99851563 5.40570313 -4.37203125 4.68640625 -3.7265625 3.9453125 C-2.52573166 2.5923402 -1.2791655 1.2791655 0 0 Z " fill="#CDCDCD" transform="translate(221,79)"/>
</svg>
